<svg width="40" height="40" viewBox="0 0 40 40" fill="none" xmlns="http://www.w3.org/2000/svg">
<rect x="0.5" y="0.5" width="39" height="39" rx="3.5" stroke="url(#paint0_linear_1324_5919)"/>
<path d="M26.6468 16.3213C26.8187 15.7666 26.8739 15.1824 26.8088 14.6054C26.7437 14.0284 26.5597 13.4711 26.2685 12.9688C26.2191 12.8832 26.1481 12.8122 26.0626 12.7628C25.977 12.7135 25.88 12.6875 25.7812 12.6875C25.1261 12.6861 24.4796 12.838 23.8936 13.131C23.3076 13.424 22.7983 13.85 22.4062 14.375H20.7188C20.3267 13.85 19.8174 13.424 19.2314 13.131C18.6454 12.838 17.9989 12.6861 17.3438 12.6875C17.245 12.6875 17.148 12.7135 17.0624 12.7628C16.9769 12.8122 16.9059 12.8832 16.8565 12.9688C16.5653 13.4711 16.3813 14.0284 16.3162 14.6054C16.2511 15.1824 16.3063 15.7666 16.4782 16.3213C16.1307 16.9279 15.9445 17.6134 15.9375 18.3125V18.875C15.9387 19.8268 16.2842 20.7459 16.9102 21.4628C17.5362 22.1797 18.4005 22.6459 19.3434 22.7752C18.9586 23.2678 18.7496 23.8749 18.75 24.5V25.0625H17.0625C16.6149 25.0625 16.1857 24.8847 15.8693 24.5683C15.5528 24.2518 15.375 23.8226 15.375 23.375C15.375 23.0057 15.3023 22.6399 15.1609 22.2987C15.0196 21.9575 14.8124 21.6474 14.5512 21.3863C14.2901 21.1251 13.98 20.9179 13.6388 20.7766C13.2976 20.6353 12.9318 20.5625 12.5625 20.5625C12.4133 20.5625 12.2702 20.6218 12.1648 20.7273C12.0593 20.8328 12 20.9758 12 21.125C12 21.2742 12.0593 21.4173 12.1648 21.5228C12.2702 21.6282 12.4133 21.6875 12.5625 21.6875C13.0101 21.6875 13.4393 21.8653 13.7557 22.1818C14.0722 22.4982 14.25 22.9275 14.25 23.375C14.25 24.1209 14.5463 24.8363 15.0738 25.3637C15.6012 25.8912 16.3166 26.1875 17.0625 26.1875H18.75V27.3125C18.75 27.4617 18.8093 27.6048 18.9148 27.7103C19.0202 27.8157 19.1633 27.875 19.3125 27.875C19.4617 27.875 19.6048 27.8157 19.7102 27.7103C19.8157 27.6048 19.875 27.4617 19.875 27.3125V24.5C19.875 24.0525 20.0528 23.6232 20.3693 23.3068C20.6857 22.9903 21.1149 22.8125 21.5625 22.8125C22.0101 22.8125 22.4393 22.9903 22.7557 23.3068C23.0722 23.6232 23.25 24.0525 23.25 24.5V27.3125C23.25 27.4617 23.3093 27.6048 23.4148 27.7103C23.5202 27.8157 23.6633 27.875 23.8125 27.875C23.9617 27.875 24.1048 27.8157 24.2102 27.7103C24.3157 27.6048 24.375 27.4617 24.375 27.3125V24.5C24.3754 23.8749 24.1664 23.2678 23.7816 22.7752C24.7245 22.6459 25.5888 22.1797 26.2148 21.4628C26.8408 20.7459 27.1863 19.8268 27.1875 18.875V18.3125C27.1805 17.6134 26.9943 16.9279 26.6468 16.3213ZM26.0625 18.875C26.0625 19.6209 25.7662 20.3363 25.2387 20.8637C24.7113 21.3912 23.9959 21.6875 23.25 21.6875H19.875C19.1291 21.6875 18.4137 21.3912 17.8863 20.8637C17.3588 20.3363 17.0625 19.6209 17.0625 18.875V18.3125C17.0694 17.75 17.2378 17.2014 17.5477 16.7319C17.6054 16.6557 17.6428 16.5662 17.6564 16.4716C17.6699 16.3769 17.6591 16.2805 17.625 16.1912C17.4785 15.8133 17.408 15.4103 17.4175 15.0051C17.427 14.5999 17.5164 14.2006 17.6805 13.8301C18.1409 13.8796 18.5842 14.0321 18.9776 14.2763C19.371 14.5204 19.7044 14.85 19.953 15.2406C20.0037 15.3198 20.0735 15.3851 20.1559 15.4304C20.2383 15.4757 20.3308 15.4997 20.4248 15.5H22.6995C22.7939 15.5 22.8868 15.4762 22.9696 15.4309C23.0524 15.3856 23.1225 15.3201 23.1734 15.2406C23.422 14.85 23.7554 14.5204 24.1488 14.2762C24.5422 14.032 24.9855 13.8796 25.4459 13.8301C25.6098 14.2007 25.6989 14.6001 25.7082 15.0052C25.7175 15.4104 25.6467 15.8134 25.5 16.1912C25.466 16.2796 25.4546 16.3751 25.4669 16.469C25.4792 16.563 25.5147 16.6524 25.5703 16.7291C25.8832 17.1986 26.0541 17.7483 26.0625 18.3125V18.875Z" fill="white"/>
<defs>
<linearGradient id="paint0_linear_1324_5919" x1="0" y1="20" x2="40" y2="20" gradientUnits="userSpaceOnUse">
<stop stop-color="#434672"/>
<stop offset="1" stop-color="#755A5A"/>
</linearGradient>
</defs>
</svg>
