<svg width="40" height="40" viewBox="0 0 40 40" fill="none" xmlns="http://www.w3.org/2000/svg">
<rect x="0.5" y="0.5" width="39" height="39" rx="3.5" stroke="url(#paint0_linear_1324_5916)"/>
<path d="M27.0996 25.8859L22.6981 18.9685L27.0413 14.1908C27.1395 14.0801 27.1901 13.9351 27.1822 13.7873C27.1742 13.6395 27.1083 13.5008 26.9988 13.4012C26.8893 13.3017 26.7449 13.2493 26.597 13.2555C26.4491 13.2617 26.3096 13.3259 26.2088 13.4342L22.0716 17.9848L19.2246 13.5109C19.1739 13.431 19.1037 13.3652 19.0208 13.3196C18.9378 13.274 18.8447 13.25 18.75 13.25H15.375C15.2742 13.25 15.1752 13.277 15.0883 13.3284C15.0015 13.3797 14.9301 13.4535 14.8816 13.5419C14.8331 13.6303 14.8092 13.7301 14.8125 13.8309C14.8159 13.9317 14.8462 14.0298 14.9004 14.1148L19.302 21.0315L14.9588 25.8127C14.9081 25.8672 14.8686 25.9312 14.8429 26.001C14.8171 26.0709 14.8054 26.1451 14.8085 26.2195C14.8116 26.2939 14.8294 26.3669 14.861 26.4343C14.8925 26.5017 14.9371 26.5622 14.9922 26.6123C15.0473 26.6623 15.1117 26.701 15.1819 26.7259C15.252 26.7509 15.3264 26.7617 15.4007 26.7577C15.475 26.7537 15.5478 26.735 15.6149 26.7026C15.6819 26.6703 15.7419 26.625 15.7913 26.5693L19.9285 22.0187L22.7754 26.4927C22.8266 26.5719 22.8969 26.637 22.9798 26.682C23.0628 26.727 23.1557 26.7503 23.25 26.75H26.625C26.7258 26.75 26.8247 26.7229 26.9114 26.6716C26.9981 26.6202 27.0694 26.5466 27.1179 26.4583C27.1664 26.37 27.1903 26.2703 27.1871 26.1696C27.1839 26.0689 27.1537 25.9709 27.0996 25.8859ZM23.5587 25.625L16.3995 14.375H18.4385L25.6006 25.625H23.5587Z" fill="white"/>
<defs>
<linearGradient id="paint0_linear_1324_5916" x1="0" y1="20" x2="40" y2="20" gradientUnits="userSpaceOnUse">
<stop stop-color="#434672"/>
<stop offset="1" stop-color="#755A5A"/>
</linearGradient>
</defs>
</svg>
